<mxfile host="app.diagrams.net" modified="2020-08-10T16:15:21.676Z" agent="5.0 (Macintosh; Intel Mac OS X 10_15_5) AppleWebKit/537.36 (KHTML, like Gecko) Chrome/84.0.4147.105 Safari/537.36" etag="Oacc2HMl07oadeCWgkFY" version="13.5.8" type="github">
  <diagram id="7vpIg6g-KnBqr2_NVFs4" name="Page-1">
    <mxGraphModel dx="2066" dy="1105" grid="1" gridSize="10" guides="1" tooltips="1" connect="1" arrows="1" fold="1" page="1" pageScale="1" pageWidth="827" pageHeight="1169" math="0" shadow="0">
      <root>
        <mxCell id="0" />
        <mxCell id="1" parent="0" />
        <mxCell id="8ad1wzV7n_TThumN_BJo-1" value="&lt;h1&gt;Program 1&lt;/h1&gt;&lt;p&gt;while(1){&lt;/p&gt;&lt;p&gt;&lt;span&gt;	&lt;/span&gt;while(p2_inside == true);&lt;/p&gt;&lt;p&gt;&amp;nbsp; &amp;nbsp; p1_inside = true;&lt;/p&gt;&lt;p&gt;&amp;nbsp; &amp;nbsp; // critical section&lt;/p&gt;&lt;p&gt;&amp;nbsp; &amp;nbsp; p1_inside = false;&lt;/p&gt;&lt;p&gt;}&lt;/p&gt;" style="text;html=1;fillColor=none;spacing=5;spacingTop=-20;whiteSpace=wrap;overflow=hidden;rounded=0;strokeColor=#00FF00;strokeWidth=2;" vertex="1" parent="1">
          <mxGeometry x="150" y="240" width="190" height="200" as="geometry" />
        </mxCell>
        <mxCell id="8ad1wzV7n_TThumN_BJo-2" value="&lt;h1&gt;Program 2&lt;/h1&gt;&lt;p&gt;while(1){&lt;/p&gt;&lt;p&gt;&lt;span&gt;	&lt;/span&gt;while(p1_inside == true);&lt;/p&gt;&lt;p&gt;&amp;nbsp; &amp;nbsp; p2_inside = true;&lt;/p&gt;&lt;p&gt;&amp;nbsp; &amp;nbsp; // critical section&lt;/p&gt;&lt;p&gt;&amp;nbsp; &amp;nbsp; p2_inside = false;&lt;/p&gt;&lt;p&gt;}&lt;/p&gt;" style="text;html=1;fillColor=none;spacing=5;spacingTop=-20;whiteSpace=wrap;overflow=hidden;rounded=0;strokeWidth=2;strokeColor=#FF0080;" vertex="1" parent="1">
          <mxGeometry x="530" y="240" width="190" height="200" as="geometry" />
        </mxCell>
        <mxCell id="8ad1wzV7n_TThumN_BJo-3" value="&lt;div&gt;p1_inside = false;&lt;/div&gt;&lt;div&gt;p2_inside = false;&lt;/div&gt;" style="text;html=1;fillColor=none;align=center;verticalAlign=middle;whiteSpace=wrap;rounded=0;strokeColor=#000000;" vertex="1" parent="1">
          <mxGeometry x="334" y="170" width="196" height="40" as="geometry" />
        </mxCell>
        <mxCell id="8ad1wzV7n_TThumN_BJo-4" value="&lt;font style=&quot;font-size: 20px&quot;&gt;Shared&lt;/font&gt;" style="text;html=1;align=center;verticalAlign=middle;resizable=0;points=[];autosize=1;" vertex="1" parent="1">
          <mxGeometry x="392" y="130" width="80" height="20" as="geometry" />
        </mxCell>
        <mxCell id="8ad1wzV7n_TThumN_BJo-5" value="" style="shape=table;html=1;whiteSpace=wrap;startSize=0;container=1;collapsible=0;childLayout=tableLayout;" vertex="1" parent="1">
          <mxGeometry x="155" y="540" width="565" height="280" as="geometry" />
        </mxCell>
        <mxCell id="8ad1wzV7n_TThumN_BJo-31" style="shape=partialRectangle;html=1;whiteSpace=wrap;collapsible=0;dropTarget=0;pointerEvents=0;fillColor=none;top=0;left=0;bottom=0;right=0;points=[[0,0.5],[1,0.5]];portConstraint=eastwest;" vertex="1" parent="8ad1wzV7n_TThumN_BJo-5">
          <mxGeometry width="565" height="40" as="geometry" />
        </mxCell>
        <mxCell id="8ad1wzV7n_TThumN_BJo-32" value="CPU" style="shape=partialRectangle;html=1;whiteSpace=wrap;connectable=0;overflow=hidden;fillColor=none;top=0;left=0;bottom=0;right=0;" vertex="1" parent="8ad1wzV7n_TThumN_BJo-31">
          <mxGeometry width="295" height="40" as="geometry" />
        </mxCell>
        <mxCell id="8ad1wzV7n_TThumN_BJo-33" value="p1_inside" style="shape=partialRectangle;html=1;whiteSpace=wrap;connectable=0;overflow=hidden;fillColor=none;top=0;left=0;bottom=0;right=0;" vertex="1" parent="8ad1wzV7n_TThumN_BJo-31">
          <mxGeometry x="295" width="140" height="40" as="geometry" />
        </mxCell>
        <mxCell id="8ad1wzV7n_TThumN_BJo-34" value="p2_inside" style="shape=partialRectangle;html=1;whiteSpace=wrap;connectable=0;overflow=hidden;fillColor=none;top=0;left=0;bottom=0;right=0;" vertex="1" parent="8ad1wzV7n_TThumN_BJo-31">
          <mxGeometry x="435" width="130" height="40" as="geometry" />
        </mxCell>
        <mxCell id="8ad1wzV7n_TThumN_BJo-6" value="" style="shape=partialRectangle;html=1;whiteSpace=wrap;collapsible=0;dropTarget=0;pointerEvents=0;fillColor=none;top=0;left=0;bottom=0;right=0;points=[[0,0.5],[1,0.5]];portConstraint=eastwest;" vertex="1" parent="8ad1wzV7n_TThumN_BJo-5">
          <mxGeometry y="40" width="565" height="40" as="geometry" />
        </mxCell>
        <mxCell id="8ad1wzV7n_TThumN_BJo-7" value="while(p1_inside == true)" style="shape=partialRectangle;html=1;whiteSpace=wrap;connectable=0;overflow=hidden;fillColor=none;top=0;left=0;bottom=0;right=0;" vertex="1" parent="8ad1wzV7n_TThumN_BJo-6">
          <mxGeometry width="295" height="40" as="geometry" />
        </mxCell>
        <mxCell id="8ad1wzV7n_TThumN_BJo-8" value="false" style="shape=partialRectangle;html=1;whiteSpace=wrap;connectable=0;overflow=hidden;fillColor=none;top=0;left=0;bottom=0;right=0;" vertex="1" parent="8ad1wzV7n_TThumN_BJo-6">
          <mxGeometry x="295" width="140" height="40" as="geometry" />
        </mxCell>
        <mxCell id="8ad1wzV7n_TThumN_BJo-9" value="false" style="shape=partialRectangle;html=1;whiteSpace=wrap;connectable=0;overflow=hidden;fillColor=none;top=0;left=0;bottom=0;right=0;" vertex="1" parent="8ad1wzV7n_TThumN_BJo-6">
          <mxGeometry x="435" width="130" height="40" as="geometry" />
        </mxCell>
        <mxCell id="8ad1wzV7n_TThumN_BJo-10" value="" style="shape=partialRectangle;html=1;whiteSpace=wrap;collapsible=0;dropTarget=0;pointerEvents=0;fillColor=none;top=0;left=0;bottom=0;right=0;points=[[0,0.5],[1,0.5]];portConstraint=eastwest;" vertex="1" parent="8ad1wzV7n_TThumN_BJo-5">
          <mxGeometry y="80" width="565" height="40" as="geometry" />
        </mxCell>
        <mxCell id="8ad1wzV7n_TThumN_BJo-30" value="" style="group;fillColor=#dae8fc;strokeColor=#6c8ebf;" vertex="1" connectable="0" parent="8ad1wzV7n_TThumN_BJo-10">
          <mxGeometry width="565" height="40" as="geometry" />
        </mxCell>
        <mxCell id="8ad1wzV7n_TThumN_BJo-11" value="context switch" style="shape=partialRectangle;html=1;whiteSpace=wrap;connectable=0;overflow=hidden;fillColor=none;top=0;left=0;bottom=0;right=0;" vertex="1" parent="8ad1wzV7n_TThumN_BJo-30">
          <mxGeometry width="295" height="40" as="geometry" />
        </mxCell>
        <mxCell id="8ad1wzV7n_TThumN_BJo-13" value="" style="shape=partialRectangle;html=1;whiteSpace=wrap;connectable=0;overflow=hidden;fillColor=none;top=0;left=0;bottom=0;right=0;" vertex="1" parent="8ad1wzV7n_TThumN_BJo-30">
          <mxGeometry x="435" width="130" height="40" as="geometry" />
        </mxCell>
        <mxCell id="8ad1wzV7n_TThumN_BJo-14" value="" style="shape=partialRectangle;html=1;whiteSpace=wrap;collapsible=0;dropTarget=0;pointerEvents=0;fillColor=none;top=0;left=0;bottom=0;right=0;points=[[0,0.5],[1,0.5]];portConstraint=eastwest;" vertex="1" parent="8ad1wzV7n_TThumN_BJo-5">
          <mxGeometry y="120" width="565" height="40" as="geometry" />
        </mxCell>
        <mxCell id="8ad1wzV7n_TThumN_BJo-15" value="while(p2_inside == true)" style="shape=partialRectangle;html=1;whiteSpace=wrap;connectable=0;overflow=hidden;fillColor=none;top=0;left=0;bottom=0;right=0;" vertex="1" parent="8ad1wzV7n_TThumN_BJo-14">
          <mxGeometry width="295" height="40" as="geometry" />
        </mxCell>
        <mxCell id="8ad1wzV7n_TThumN_BJo-16" value="false" style="shape=partialRectangle;html=1;whiteSpace=wrap;connectable=0;overflow=hidden;fillColor=none;top=0;left=0;bottom=0;right=0;" vertex="1" parent="8ad1wzV7n_TThumN_BJo-14">
          <mxGeometry x="295" width="140" height="40" as="geometry" />
        </mxCell>
        <mxCell id="8ad1wzV7n_TThumN_BJo-17" value="false" style="shape=partialRectangle;html=1;whiteSpace=wrap;connectable=0;overflow=hidden;fillColor=none;top=0;left=0;bottom=0;right=0;" vertex="1" parent="8ad1wzV7n_TThumN_BJo-14">
          <mxGeometry x="435" width="130" height="40" as="geometry" />
        </mxCell>
        <mxCell id="8ad1wzV7n_TThumN_BJo-18" value="" style="shape=partialRectangle;html=1;whiteSpace=wrap;collapsible=0;dropTarget=0;pointerEvents=0;fillColor=none;top=0;left=0;bottom=0;right=0;points=[[0,0.5],[1,0.5]];portConstraint=eastwest;" vertex="1" parent="8ad1wzV7n_TThumN_BJo-5">
          <mxGeometry y="160" width="565" height="40" as="geometry" />
        </mxCell>
        <mxCell id="8ad1wzV7n_TThumN_BJo-19" value="p1_inside == true" style="shape=partialRectangle;html=1;whiteSpace=wrap;connectable=0;overflow=hidden;fillColor=none;top=0;left=0;bottom=0;right=0;" vertex="1" parent="8ad1wzV7n_TThumN_BJo-18">
          <mxGeometry width="295" height="40" as="geometry" />
        </mxCell>
        <mxCell id="8ad1wzV7n_TThumN_BJo-20" value="true" style="shape=partialRectangle;html=1;whiteSpace=wrap;connectable=0;overflow=hidden;fillColor=none;top=0;left=0;bottom=0;right=0;" vertex="1" parent="8ad1wzV7n_TThumN_BJo-18">
          <mxGeometry x="295" width="140" height="40" as="geometry" />
        </mxCell>
        <mxCell id="8ad1wzV7n_TThumN_BJo-21" value="false" style="shape=partialRectangle;html=1;whiteSpace=wrap;connectable=0;overflow=hidden;fillColor=none;top=0;left=0;bottom=0;right=0;" vertex="1" parent="8ad1wzV7n_TThumN_BJo-18">
          <mxGeometry x="435" width="130" height="40" as="geometry" />
        </mxCell>
        <mxCell id="8ad1wzV7n_TThumN_BJo-22" value="" style="shape=partialRectangle;html=1;whiteSpace=wrap;collapsible=0;dropTarget=0;pointerEvents=0;fillColor=none;top=0;left=0;bottom=0;right=0;points=[[0,0.5],[1,0.5]];portConstraint=eastwest;" vertex="1" parent="8ad1wzV7n_TThumN_BJo-5">
          <mxGeometry y="200" width="565" height="40" as="geometry" />
        </mxCell>
        <mxCell id="8ad1wzV7n_TThumN_BJo-35" value="" style="group;fillColor=#dae8fc;strokeColor=#6c8ebf;" vertex="1" connectable="0" parent="8ad1wzV7n_TThumN_BJo-22">
          <mxGeometry width="565" height="40" as="geometry" />
        </mxCell>
        <mxCell id="8ad1wzV7n_TThumN_BJo-23" value="" style="shape=partialRectangle;html=1;whiteSpace=wrap;connectable=0;overflow=hidden;fillColor=none;top=0;left=0;bottom=0;right=0;" vertex="1" parent="8ad1wzV7n_TThumN_BJo-35">
          <mxGeometry width="295" height="40" as="geometry" />
        </mxCell>
        <mxCell id="8ad1wzV7n_TThumN_BJo-24" value="" style="shape=partialRectangle;html=1;whiteSpace=wrap;connectable=0;overflow=hidden;fillColor=none;top=0;left=0;bottom=0;right=0;" vertex="1" parent="8ad1wzV7n_TThumN_BJo-35">
          <mxGeometry x="295" width="140" height="40" as="geometry" />
        </mxCell>
        <mxCell id="8ad1wzV7n_TThumN_BJo-25" value="" style="shape=partialRectangle;html=1;whiteSpace=wrap;connectable=0;overflow=hidden;fillColor=none;top=0;left=0;bottom=0;right=0;" vertex="1" parent="8ad1wzV7n_TThumN_BJo-35">
          <mxGeometry x="435" width="130" height="40" as="geometry" />
        </mxCell>
        <mxCell id="8ad1wzV7n_TThumN_BJo-26" value="" style="shape=partialRectangle;html=1;whiteSpace=wrap;collapsible=0;dropTarget=0;pointerEvents=0;fillColor=none;top=0;left=0;bottom=0;right=0;points=[[0,0.5],[1,0.5]];portConstraint=eastwest;" vertex="1" parent="8ad1wzV7n_TThumN_BJo-5">
          <mxGeometry y="240" width="565" height="40" as="geometry" />
        </mxCell>
        <mxCell id="8ad1wzV7n_TThumN_BJo-27" value="p2_inside = ture" style="shape=partialRectangle;html=1;whiteSpace=wrap;connectable=0;overflow=hidden;fillColor=none;top=0;left=0;bottom=0;right=0;" vertex="1" parent="8ad1wzV7n_TThumN_BJo-26">
          <mxGeometry width="295" height="40" as="geometry" />
        </mxCell>
        <mxCell id="8ad1wzV7n_TThumN_BJo-28" value="true" style="shape=partialRectangle;html=1;whiteSpace=wrap;connectable=0;overflow=hidden;fillColor=none;top=0;left=0;bottom=0;right=0;" vertex="1" parent="8ad1wzV7n_TThumN_BJo-26">
          <mxGeometry x="295" width="140" height="40" as="geometry" />
        </mxCell>
        <mxCell id="8ad1wzV7n_TThumN_BJo-29" value="true" style="shape=partialRectangle;html=1;whiteSpace=wrap;connectable=0;overflow=hidden;fillColor=none;top=0;left=0;bottom=0;right=0;" vertex="1" parent="8ad1wzV7n_TThumN_BJo-26">
          <mxGeometry x="435" width="130" height="40" as="geometry" />
        </mxCell>
      </root>
    </mxGraphModel>
  </diagram>
</mxfile>
